<svg version="1.0" xmlns="http://www.w3.org/2000/svg" viewBox="0 0 2140 2050"><path d="M384 1910c-71-28-128-80-163-152l-31-61v-628c0-610 1-630 21-683 25-67 85-132 154-166l50-25 619-3c533-2 626 0 672 13a311 311 0 01213 233c9 41 11 222 9 657-3 588-3 601-24 646-30 64-88 125-148 157l-51 27-635 2c-610 2-637 1-686-17zm1020-312c14-45 24-83 23-85l-265-85c-144-45-262-85-262-89s52-116 115-249c63-134 115-246 115-250 0-13-150-74-159-64-4 5-35 68-68 139-198 424-244 528-237 534 5 4 85 32 179 62 93 30 246 79 340 111 93 31 175 57 182 57 7 1 23-35 37-81zm-104-565c84-181 155-335 157-344 5-16-49-36-592-210l-111-36c-7-3-20 24-33 66l-27 85c-4 11 18 22 88 44 114 37 338 106 396 123 23 7 42 17 42 23s-52 120-116 254-114 245-112 246c6 6 143 75 149 76 3 0 75-147 159-327z" fill="#020202"/></svg>