<svg version="1.0" xmlns="http://www.w3.org/2000/svg" viewBox="0 0 6970 6970"><path d="M2869 5684l-1305-818c-4-3 1625-2601 1633-2603 6-2 574 345 591 362 2 2-278 454-623 1004-345 551-625 1006-623 1012s451 291 998 633c665 416 995 628 994 638-1 11-329 546-359 585-1 2-588-364-1306-813z"/><path d="M3435 4698c-160-99-293-183-297-187-4-3 275-459 621-1011 346-553 627-1007 626-1010-2-3-454-286-1004-630s-1001-628-1001-633c0-12 362-587 371-587 4 0 591 365 1304 811 983 615 1296 816 1292 828-3 13-1567 2519-1611 2583-11 15-44-3-301-164z"/></svg>